<svg id="Layer_1" data-name="Layer 1" xmlns="http://www.w3.org/2000/svg" viewBox="0 0 73 73"><defs><style>.cls-1{fill:#ff8001;}.cls-2{fill:#fff;}</style></defs><rect class="cls-1" width="73" height="72.96" rx="13.9"/><path class="cls-2" d="M273.7,175.8a3.6,3.6,0,0,0-4.8-1.9l-20.7,9.5a3.5,3.5,0,0,0-1,5.9l17.6,16.3.7.5a3.5,3.5,0,0,0,4.7-1.2,3.7,3.7,0,0,0-.7-4.7L256,187.7h0l15.7-7.2A3.6,3.6,0,0,0,273.7,175.8Z" transform="translate(-218.3 -163.6)"/><path class="cls-2" d="M250.2,195.1a3.6,3.6,0,0,0-5.1.3,3.7,3.7,0,0,0,.3,5.1l12.7,11.8h0l-16.9,7.6a3.6,3.6,0,0,0-2.1,4.2,3.6,3.6,0,0,0,4.1,2.6l.8-.3,21.8-9.7a3.1,3.1,0,0,0,1.7-1.5,3.5,3.5,0,0,0-.6-4.4Z" transform="translate(-218.3 -163.6)"/></svg>